<?xml version="1.0" encoding="utf-8"?>
<!-- Generator: Adobe Illustrator 18.0.0, SVG Export Plug-In . SVG Version: 6.00 Build 0)  -->
<!DOCTYPE svg PUBLIC "-//W3C//DTD SVG 1.1//EN" "http://www.w3.org/Graphics/SVG/1.1/DTD/svg11.dtd">
<svg version="1.1" id="Layer_1" xmlns="http://www.w3.org/2000/svg" xmlns:xlink="http://www.w3.org/1999/xlink" x="0px" y="0px"
	 width="99.3px" height="64px" viewBox="0 0 99.3 64" style="enable-background:new 0 0 99.3 64;" xml:space="preserve">
<style type="text/css">
	.st0{display:none;fill:#DC170A;}
	.st1{fill:#FFFFFF;}
</style>
<rect id="BG" x="-112.2" y="54.4" class="st0" width="595.3" height="252.9"/>
<g id="For_light_BGs_1_">
	<g>
		<g>
			<g>
				<path class="st1" d="M20.6,57.5C20.6,57.5,20.6,57.4,20.6,57.5"/>
			</g>
			<g>
				<path class="st1" d="M89.5,20.9c-2.8,0-5.1,2.3-5.1,5.1c0,0,0,0.1,0,0.1l-17.6,7.5L53.8,11c0.6-0.8,0.9-1.8,0.9-2.9
					c0-2.8-2.3-5.1-5.1-5.1c-2.8,0-5.1,2.3-5.1,5.1c0,1.1,0.4,2.1,1,3L32.4,33.7l-17.6-7.5c0,0,0-0.1,0-0.1c0-2.8-2.3-5.1-5.1-5.1
					S4.6,23.2,4.6,26c0,2.8,2.3,5.1,5.1,5.1c0,0,0,0,0,0l8.5,21.1c-1,0.9-1.6,2.2-1.6,3.7c0,2.8,2.3,5.1,5.1,5.1
					c2.1,0,4-1.3,4.7-3.2h46.4c0.7,1.9,2.6,3.2,4.7,3.2c2.8,0,5.1-2.3,5.1-5.1c0-1.5-0.6-2.8-1.6-3.7l8.5-21.1c0,0,0,0,0,0
					c2.8,0,5.1-2.3,5.1-5.1C94.6,23.2,92.3,20.9,89.5,20.9z M87.7,26c0-1,0.8-1.9,1.9-1.9c1,0,1.9,0.8,1.9,1.9c0,1-0.8,1.9-1.9,1.9
					C88.5,27.9,87.7,27.1,87.7,26z M75.7,56c0-0.2,0-0.5,0.1-0.7c0.3-0.7,0.9-1.2,1.7-1.2c0.3,0,0.5,0.1,0.7,0.1
					c0.7,0.3,1.1,0.9,1.1,1.7c0,0.2,0,0.5-0.1,0.7c-0.3,0.7-0.9,1.2-1.7,1.2c-0.9,0-1.7-0.7-1.8-1.5C75.7,56.2,75.7,56.1,75.7,56z
					 M49.6,9.9c-1,0-1.9-0.8-1.9-1.9c0-1,0.8-1.9,1.9-1.9c1,0,1.9,0.8,1.9,1.9C51.5,9.1,50.6,9.9,49.6,9.9z M48.6,13.1
					c0.3,0.1,0.6,0.1,1,0.1c0.3,0,0.7,0,1-0.1l12.8,22.1l-13.8,5.9l-13.7-5.9L48.6,13.1z M65.3,38.4l7.2,12.4l-18.1-7.7L65.3,38.4z
					 M21.7,57.8c-0.4,0-0.7-0.1-1-0.3c0,0-0.1,0-0.1-0.1c0,0,0,0,0,0c-0.3-0.2-0.5-0.5-0.6-0.8c-0.1-0.2-0.1-0.4-0.1-0.7
					c0-0.4,0.1-0.8,0.3-1.1c0.2-0.3,0.5-0.5,0.8-0.6c0.2-0.1,0.5-0.1,0.7-0.1c0.8,0,1.4,0.5,1.7,1.2c0.1,0.2,0.1,0.4,0.1,0.7
					c0,0.1,0,0.2,0,0.3C23.3,57.2,22.6,57.8,21.7,57.8z M44.9,43.1l-18,7.7L34,38.5L44.9,43.1z M7.9,26c0-1,0.8-1.9,1.9-1.9
					c1,0,1.9,0.8,1.9,1.9c0,1-0.8,1.9-1.9,1.9C8.7,27.9,7.9,27.1,7.9,26z M13.2,29.7c0,0,0.1-0.1,0.1-0.1L30.5,37l-8.1,14
					c-0.3,0-0.5-0.1-0.8-0.1c0,0,0,0,0,0L13.2,29.7z M28.7,54.1l20.9-9l20.9,9H28.7z M77.6,50.9C77.6,50.9,77.6,50.9,77.6,50.9
					c-0.3,0-0.5,0-0.8,0.1l-8.1-14l17.2-7.3c0,0,0.1,0.1,0.1,0.1L77.6,50.9z"/>
			</g>
		</g>
	</g>
</g>
</svg>
